<svg width="800" height="400" viewBox="0 0 800 400" xmlns="http://www.w3.org/2000/svg">
  <defs>
    <linearGradient id="bg5" x1="0%" y1="0%" x2="100%" y2="100%">
      <stop offset="0%" style="stop-color:#f59e0b;stop-opacity:0.1" />
      <stop offset="100%" style="stop-color:#d97706;stop-opacity:0.1" />
    </linearGradient>
  </defs>
  <rect width="800" height="400" fill="url(#bg5)"/>
  <rect x="50" y="50" width="150" height="150" fill="#000" rx="10"/>
  <rect x="60" y="60" width="130" height="130" fill="#fff"/>
  <!-- QR Code pattern -->
  <rect x="70" y="70" width="10" height="10" fill="#000"/>
  <rect x="90" y="70" width="10" height="10" fill="#000"/>
  <rect x="110" y="70" width="10" height="10" fill="#000"/>
  <rect x="130" y="70" width="10" height="10" fill="#000"/>
  <rect x="150" y="70" width="10" height="10" fill="#000"/>
  <rect x="170" y="70" width="10" height="10" fill="#000"/>
  
  <!-- Analytics chart -->
  <path d="M270 160 L300 140 L330 120 L360 100 L390 80" stroke="#f59e0b" stroke-width="4" fill="none"/>
  <circle cx="270" cy="160" r="4" fill="#f59e0b"/>
  <circle cx="300" cy="140" r="4" fill="#f59e0b"/>
  <circle cx="330" cy="120" r="4" fill="#f59e0b"/>
  <circle cx="360" cy="100" r="4" fill="#f59e0b"/>
  <circle cx="390" cy="80" r="4" fill="#f59e0b"/>
  
  <text x="250" y="280" font-family="Arial, sans-serif" font-size="32" font-weight="bold" fill="#1f2937">QR Code Analytics</text>
  <text x="250" y="320" font-family="Arial, sans-serif" font-size="18" fill="#6b7280">Performance tracking • Scan metrics • Campaign optimization</text>
</svg>