<svg width="800" height="400" viewBox="0 0 800 400" xmlns="http://www.w3.org/2000/svg">
  <defs>
    <linearGradient id="bg3" x1="0%" y1="0%" x2="100%" y2="100%">
      <stop offset="0%" style="stop-color:#8b5cf6;stop-opacity:0.1" />
      <stop offset="100%" style="stop-color:#ec4899;stop-opacity:0.1" />
    </linearGradient>
  </defs>
  <rect width="800" height="400" fill="url(#bg3)"/>
  <rect x="50" y="50" width="150" height="150" fill="#000" rx="10"/>
  <rect x="60" y="60" width="130" height="130" fill="#fff"/>
  <!-- QR Code pattern -->
  <rect x="70" y="70" width="10" height="10" fill="#000"/>
  <rect x="90" y="70" width="10" height="10" fill="#000"/>
  <rect x="110" y="70" width="10" height="10" fill="#000"/>
  <rect x="130" y="70" width="10" height="10" fill="#000"/>
  <rect x="150" y="70" width="10" height="10" fill="#000"/>
  <rect x="170" y="70" width="10" height="10" fill="#000"/>
  <rect x="70" y="90" width="10" height="10" fill="#000"/>
  <rect x="170" y="90" width="10" height="10" fill="#000"/>
  <rect x="70" y="110" width="10" height="10" fill="#000"/>
  <rect x="110" y="110" width="10" height="10" fill="#000"/>
  <rect x="170" y="110" width="10" height="10" fill="#000"/>
  <rect x="70" y="130" width="10" height="10" fill="#000"/>
  <rect x="170" y="130" width="10" height="10" fill="#000"/>
  <rect x="70" y="150" width="10" height="10" fill="#000"/>
  <rect x="90" y="150" width="10" height="10" fill="#000"/>
  <rect x="110" y="150" width="10" height="10" fill="#000"/>
  <rect x="130" y="150" width="10" height="10" fill="#000"/>
  <rect x="150" y="150" width="10" height="10" fill="#000"/>
  <rect x="170" y="150" width="10" height="10" fill="#000"/>
  
  <!-- Marketing chart -->
  <rect x="300" y="140" width="20" height="40" fill="#8b5cf6"/>
  <rect x="330" y="120" width="20" height="60" fill="#a855f7"/>
  <rect x="360" y="100" width="20" height="80" fill="#c084fc"/>
  <rect x="390" y="80" width="20" height="100" fill="#d8b4fe"/>
  
  <text x="250" y="280" font-family="Arial, sans-serif" font-size="32" font-weight="bold" fill="#1f2937">QR Code Marketing</text>
  <text x="250" y="320" font-family="Arial, sans-serif" font-size="18" fill="#6b7280">Creative strategies • Campaign tracking • ROI optimization</text>
</svg>