<svg width="800" height="400" viewBox="0 0 800 400" xmlns="http://www.w3.org/2000/svg">
  <defs>
    <linearGradient id="bg2" x1="0%" y1="0%" x2="100%" y2="100%">
      <stop offset="0%" style="stop-color:#3b82f6;stop-opacity:0.1" />
      <stop offset="100%" style="stop-color:#06b6d4;stop-opacity:0.1" />
    </linearGradient>
  </defs>
  <rect width="800" height="400" fill="url(#bg2)"/>
  <rect x="50" y="50" width="150" height="150" fill="#000" rx="10"/>
  <rect x="60" y="60" width="130" height="130" fill="#fff"/>
  <!-- QR Code pattern -->
  <rect x="70" y="70" width="10" height="10" fill="#000"/>
  <rect x="90" y="70" width="10" height="10" fill="#000"/>
  <rect x="110" y="70" width="10" height="10" fill="#000"/>
  <rect x="130" y="70" width="10" height="10" fill="#000"/>
  <rect x="150" y="70" width="10" height="10" fill="#000"/>
  <rect x="170" y="70" width="10" height="10" fill="#000"/>
  <rect x="70" y="90" width="10" height="10" fill="#000"/>
  <rect x="170" y="90" width="10" height="10" fill="#000"/>
  <rect x="70" y="110" width="10" height="10" fill="#000"/>
  <rect x="110" y="110" width="10" height="10" fill="#000"/>
  <rect x="170" y="110" width="10" height="10" fill="#000"/>
  <rect x="70" y="130" width="10" height="10" fill="#000"/>
  <rect x="170" y="130" width="10" height="10" fill="#000"/>
  <rect x="70" y="150" width="10" height="10" fill="#000"/>
  <rect x="90" y="150" width="10" height="10" fill="#000"/>
  <rect x="110" y="150" width="10" height="10" fill="#000"/>
  <rect x="130" y="150" width="10" height="10" fill="#000"/>
  <rect x="150" y="150" width="10" height="10" fill="#000"/>
  <rect x="170" y="150" width="10" height="10" fill="#000"/>
  
  <!-- House icon -->
  <path d="M300 120 L340 80 L380 120 L380 180 L300 180 Z" fill="#3b82f6" opacity="0.7"/>
  <rect x="315" y="140" width="15" height="25" fill="#fff"/>
  <rect x="350" y="140" width="15" height="15" fill="#fff"/>
  <path d="M320 80 L360 80" stroke="#3b82f6" stroke-width="4"/>
  
  <text x="250" y="280" font-family="Arial, sans-serif" font-size="32" font-weight="bold" fill="#1f2937">Real Estate QR Codes</text>
  <text x="250" y="320" font-family="Arial, sans-serif" font-size="18" fill="#6b7280">Property listings • Virtual tours • Lead generation</text>
</svg>