<svg width="800" height="400" viewBox="0 0 800 400" xmlns="http://www.w3.org/2000/svg">
  <defs>
    <linearGradient id="bg6" x1="0%" y1="0%" x2="100%" y2="100%">
      <stop offset="0%" style="stop-color:#6366f1;stop-opacity:0.1" />
      <stop offset="100%" style="stop-color:#4f46e5;stop-opacity:0.1" />
    </linearGradient>
  </defs>
  <rect width="800" height="400" fill="url(#bg6)"/>
  <rect x="50" y="50" width="150" height="150" fill="#000" rx="10"/>
  <rect x="60" y="60" width="130" height="130" fill="#fff"/>
  <!-- QR Code pattern -->
  <rect x="70" y="70" width="10" height="10" fill="#000"/>
  <rect x="90" y="70" width="10" height="10" fill="#000"/>
  <rect x="110" y="70" width="10" height="10" fill="#000"/>
  <rect x="130" y="70" width="10" height="10" fill="#000"/>
  <rect x="150" y="70" width="10" height="10" fill="#000"/>
  <rect x="170" y="70" width="10" height="10" fill="#000"/>
  
  <!-- Business building -->
  <rect x="300" y="100" width="80" height="80" fill="#6366f1" opacity="0.7"/>
  <rect x="310" y="110" width="15" height="15" fill="#fff"/>
  <rect x="335" y="110" width="15" height="15" fill="#fff"/>
  <rect x="355" y="110" width="15" height="15" fill="#fff"/>
  <rect x="310" y="135" width="15" height="15" fill="#fff"/>
  <rect x="335" y="135" width="15" height="15" fill="#fff"/>
  <rect x="355" y="135" width="15" height="15" fill="#fff"/>
  <rect x="325" y="160" width="20" height="20" fill="#fff"/>
  
  <text x="250" y="280" font-family="Arial, sans-serif" font-size="32" font-weight="bold" fill="#1f2937">Small Business QR</text>
  <text x="250" y="320" font-family="Arial, sans-serif" font-size="18" fill="#6b7280">Practical solutions • Cost-effective • Easy implementation</text>
</svg>