<svg viewBox="0 0 800 400" xmlns="http://www.w3.org/2000/svg">
  <defs>
    <linearGradient id="toolGrad" x1="0%" y1="0%" x2="100%" y2="100%">
      <stop offset="0%" style="stop-color:#3b82f6;stop-opacity:1" />
      <stop offset="100%" style="stop-color:#1d4ed8;stop-opacity:1" />
    </linearGradient>
  </defs>
  <rect width="800" height="400" fill="#dbeafe"/>
  <circle cx="120" cy="80" r="30" fill="url(#toolGrad)" opacity="0.3"/>
  <circle cx="680" cy="320" r="50" fill="url(#toolGrad)" opacity="0.2"/>
  
  <!-- Computer Screen -->
  <rect x="250" y="120" width="300" height="180" fill="#1f2937" rx="8"/>
  <rect x="260" y="130" width="280" height="140" fill="#f3f4f6"/>
  <rect x="350" y="310" width="100" height="20" fill="#6b7280" rx="10"/>
  <circle cx="400" cy="340" r="15" fill="#6b7280"/>
  
  <!-- QR Code on Screen -->
  <rect x="400" y="160" width="80" height="80" fill="#000" rx="4"/>
  <rect x="405" y="165" width="12" height="12" fill="#fff"/>
  <rect x="425" y="165" width="8" height="8" fill="#fff"/>
  <rect x="440" y="165" width="12" height="12" fill="#fff"/>
  <rect x="460" y="165" width="12" height="12" fill="#fff"/>
  <rect x="405" y="185" width="8" height="8" fill="#fff"/>
  <rect x="420" y="185" width="12" height="12" fill="#fff"/>
  <rect x="440" y="185" width="8" height="8" fill="#fff"/>
  <rect x="455" y="185" width="17" height="8" fill="#fff"/>
  <rect x="405" y="205" width="12" height="12" fill="#fff"/>
  <rect x="425" y="205" width="8" height="8" fill="#fff"/>
  <rect x="440" y="205" width="12" height="12" fill="#fff"/>
  <rect x="460" y="205" width="12" height="12" fill="#fff"/>
  <rect x="405" y="225" width="17" height="12" fill="#fff"/>
  <rect x="430" y="225" width="8" height="8" fill="#fff"/>
  <rect x="445" y="225" width="12" height="12" fill="#fff"/>
  <rect x="465" y="225" width="8" height="8" fill="#fff"/>
  
  <!-- Interface Elements -->
  <rect x="270" y="140" width="60" height="8" fill="#3b82f6" rx="4"/>
  <rect x="270" y="155" width="40" height="6" fill="#9ca3af" rx="3"/>
  <rect x="270" y="165" width="50" height="6" fill="#9ca3af" rx="3"/>
  
  <!-- Buttons -->
  <rect x="350" y="250" width="60" height="15" fill="#10b981" rx="8"/>
  <text x="380" y="260" text-anchor="middle" fill="#fff" font-family="Arial, sans-serif" font-size="8" font-weight="bold">GENERATE</text>
  
  <!-- Download Arrow -->
  <rect x="420" y="250" width="40" height="15" fill="#f59e0b" rx="8"/>
  <text x="440" y="260" text-anchor="middle" fill="#fff" font-family="Arial, sans-serif" font-size="8" font-weight="bold">DOWNLOAD</text>
  
  <!-- Floating QR Codes -->
  <rect x="100" y="200" width="60" height="60" fill="#000" rx="6" opacity="0.7"/>
  <rect x="105" y="205" width="10" height="10" fill="#fff"/>
  <rect x="120" y="205" width="6" height="6" fill="#fff"/>
  <rect x="135" y="205" width="10" height="10" fill="#fff"/>
  <rect x="150" y="205" width="10" height="10" fill="#fff"/>
  
  <rect x="600" y="150" width="80" height="80" fill="#000" rx="8" opacity="0.5"/>
  <rect x="608" y="158" width="12" height="12" fill="#fff"/>
  <rect x="628" y="158" width="8" height="8" fill="#fff"/>
  <rect x="645" y="158" width="12" height="12" fill="#fff"/>
  <rect x="665" y="158" width="12" height="12" fill="#fff"/>
  
  <!-- Title -->
  <text x="400" y="50" text-anchor="middle" fill="#1f2937" font-family="Arial, sans-serif" font-size="32" font-weight="bold">Free QR Generator</text>
  <text x="400" y="80" text-anchor="middle" fill="#6b7280" font-family="Arial, sans-serif" font-size="16">Create Professional QR Codes Instantly</text>
  
  <!-- Features -->
  <circle cx="80" cy="350" r="4" fill="#10b981"/>
  <text x="95" y="355" fill="#1f2937" font-family="Arial, sans-serif" font-size="12">Unlimited QR Codes</text>
  
  <circle cx="250" cy="350" r="4" fill="#10b981"/>
  <text x="265" y="355" fill="#1f2937" font-family="Arial, sans-serif" font-size="12">Custom Designs</text>
  
  <circle cx="400" cy="350" r="4" fill="#10b981"/>
  <text x="415" y="355" fill="#1f2937" font-family="Arial, sans-serif" font-size="12">High Resolution</text>
  
  <circle cx="550" cy="350" r="4" fill="#10b981"/>
  <text x="565" y="355" fill="#1f2937" font-family="Arial, sans-serif" font-size="12">Analytics Tracking</text>
</svg>