<svg width="32" height="32" viewBox="0 0 32 32" fill="none" xmlns="http://www.w3.org/2000/svg">
  <!-- QR Code Pattern -->
  <rect x="2" y="2" width="6" height="6" fill="#8B745E" rx="1"/>
  <rect x="3" y="3" width="4" height="4" fill="white"/>
  <rect x="4" y="4" width="2" height="2" fill="#8B745E"/>
  
  <rect x="24" y="2" width="6" height="6" fill="#8B745E" rx="1"/>
  <rect x="25" y="3" width="4" height="4" fill="white"/>
  <rect x="26" y="4" width="2" height="2" fill="#8B745E"/>
  
  <rect x="2" y="24" width="6" height="6" fill="#8B745E" rx="1"/>
  <rect x="3" y="25" width="4" height="4" fill="white"/>
  <rect x="4" y="26" width="2" height="2" fill="#8B745E"/>
  
  <!-- QR Pattern dots -->
  <rect x="10" y="2" width="2" height="2" fill="#8B745E"/>
  <rect x="14" y="2" width="2" height="2" fill="#8B745E"/>
  <rect x="18" y="2" width="2" height="2" fill="#8B745E"/>
  
  <rect x="2" y="10" width="2" height="2" fill="#8B745E"/>
  <rect x="2" y="14" width="2" height="2" fill="#8B745E"/>
  <rect x="2" y="18" width="2" height="2" fill="#8B745E"/>
  
  <rect x="10" y="10" width="2" height="2" fill="#8B745E"/>
  <rect x="14" y="10" width="2" height="2" fill="#8B745E"/>
  <rect x="18" y="10" width="2" height="2" fill="#8B745E"/>
  
  <rect x="10" y="14" width="2" height="2" fill="#8B745E"/>
  <rect x="18" y="14" width="2" height="2" fill="#8B745E"/>
  
  <rect x="10" y="18" width="2" height="2" fill="#8B745E"/>
  <rect x="14" y="18" width="2" height="2" fill="#8B745E"/>
  <rect x="18" y="18" width="2" height="2" fill="#8B745E"/>
  
  <rect x="24" y="10" width="2" height="2" fill="#8B745E"/>
  <rect x="28" y="10" width="2" height="2" fill="#8B745E"/>
  <rect x="24" y="14" width="2" height="2" fill="#8B745E"/>
  <rect x="28" y="14" width="2" height="2" fill="#8B745E"/>
  <rect x="24" y="18" width="2" height="2" fill="#8B745E"/>
  <rect x="28" y="18" width="2" height="2" fill="#8B745E"/>
  
  <rect x="10" y="24" width="2" height="2" fill="#8B745E"/>
  <rect x="14" y="24" width="2" height="2" fill="#8B745E"/>
  <rect x="18" y="24" width="2" height="2" fill="#8B745E"/>
  
  <rect x="10" y="28" width="2" height="2" fill="#8B745E"/>
  <rect x="14" y="28" width="2" height="2" fill="#8B745E"/>
  <rect x="18" y="28" width="2" height="2" fill="#8B745E"/>
  
  <rect x="24" y="24" width="2" height="2" fill="#8B745E"/>
  <rect x="28" y="24" width="2" height="2" fill="#8B745E"/>
  <rect x="24" y="28" width="2" height="2" fill="#8B745E"/>
  <rect x="28" y="28" width="2" height="2" fill="#8B745E"/>
</svg>